<?xml version="1.0" encoding="utf-8"?>
<!-- Generator: Adobe Illustrator 25.0.1, SVG Export Plug-In . SVG Version: 6.00 Build 0)  -->
<svg version="1.0" id="Layer_1" xmlns="http://www.w3.org/2000/svg" xmlns:xlink="http://www.w3.org/1999/xlink" x="0px" y="0px"
	 viewBox="0 0 346.8 224" style="enable-background:new 0 0 346.8 224;" xml:space="preserve">
<style type="text/css">
	.st0{fill:#2857AF;}
	.st1{fill:#FFFFFF;}
	.st2{fill:#1C1C1C;}
</style>
<g>
	<rect x="41.8" y="62" class="st0" width="100" height="100"/>
	<g>
		<path class="st1" d="M82.6,122.7c0.7,1,1.5,1.5,2.1,1.5c0.8,0,1.7-0.8,2.3-2.1c2.1-3.9,3.5-7.8,4.8-11.6
			c1.9-5.3,3.8-10.7,7.7-15.8c4.1-5.3,10.6-7.4,12.9-8c0.4-0.1,0.5-0.6,0.2-0.8c-5.7-4.6-13-7.3-20.8-7.3c-3.9,0-7.6,0.7-11,1.9
			c-4.3,1.5-7.1,5.5-7.2,10C73.3,99.3,74.7,111.7,82.6,122.7"/>
		<path class="st1" d="M113.6,94.5c-3.6,0.5-6.2,3-7.7,5c-3.1,4.2-4.7,8.6-6.5,13.7c-1.4,4-2.9,8.2-5.3,12.7c-2,3.7-5.2,7.5-8.8,7.8
			c-0.2,0-0.4,0-0.6,0c-3.3,0-6.4-3.3-8.5-6.3c-8-11.3-10.3-23.6-10.5-33.2c0-0.9-1.1-1.2-1.6-0.4c-4.7,6.9-7,16.6-4.5,26.3
			c3.1,12.5,13.2,21.8,24.8,24.4c21.7,4.9,40.9-11.6,40.9-32.5c0-4.2-0.8-8.2-2.2-11.9c-1-2.7-3.3-4.8-6.2-5.4
			C115.7,94.4,114.6,94.4,113.6,94.5"/>
	</g>
	<path class="st2" d="M234.5,84.8c-1.7-0.2-3.2-0.9-3.2-1.5c0-0.9,1-1,1.6-1c0.6,0,1.9,0.1,1.9,1.3c0,0.1,0.1,0.2,0.2,0.2h3.8
		c0.1,0,0.2-0.1,0.2-0.2c0-2.9-2.5-4.9-6-4.9c-3.5,0-6,2-6,4.7c0,2.4,3,4,5.8,4.3c1.2,0.2,2,0.7,2,1.2c0,0.7-0.9,1.1-1.7,1.1
		c-0.3,0-2-0.1-2-1.3c0-0.1-0.1-0.2-0.2-0.2h-3.8c-0.1,0-0.2,0.1-0.2,0.2c0,3.2,3.1,4.9,6.2,4.9c3.1,0,6.2-1.7,6.2-4.9
		C239,86.3,236.8,85,234.5,84.8"/>
	<path class="st2" d="M185.3,78.7c-1.1,0-2.2,0.4-3,1v-7.6c0-0.1-0.1-0.2-0.2-0.2h-3.7c-0.1,0-0.2,0.1-0.2,0.2v21
		c0,0.1,0.1,0.2,0.2,0.2h3.7c0.1,0,0.2-0.1,0.2-0.2v-6.9c0-1.8,0.9-3.6,3-3.6c2.1,0,3,1.8,3,3.7v6.9c0,0.1,0.1,0.2,0.2,0.2h3.7
		c0.1,0,0.2-0.1,0.2-0.2v-6.9C192.5,81.9,189.4,78.7,185.3,78.7"/>
	<path class="st2" d="M205,86.2c0,2-1.6,3.7-3.5,3.7c-1.9,0-3.5-1.6-3.5-3.7c0-2,1.6-3.7,3.5-3.7C203.5,82.5,205,84.2,205,86.2
		 M201.4,78.7c-4.2,0-7.5,3.4-7.5,7.5c0,4.1,3.4,7.5,7.5,7.5c1.4,0,2.7-0.7,3.7-1.9l0,1.3c0,0.1,0.1,0.2,0.2,0.2h3.5
		c0.1,0,0.2-0.1,0.2-0.2v-6.9C209,82,205.6,78.7,201.4,78.7"/>
	<path class="st2" d="M221.5,86.2c0,2-1.6,3.7-3.5,3.7c-1.9,0-3.5-1.6-3.5-3.7c0-2,1.6-3.7,3.5-3.7
		C219.9,82.5,221.5,84.2,221.5,86.2 M218,78.7c-4.2,0-7.6,3.4-7.6,7.5c0,4.1,3.4,7.5,7.6,7.5c4.2,0,7.6-3.4,7.6-7.5
		C225.5,82,222.1,78.7,218,78.7"/>
	<path class="st2" d="M170.7,89.5c-1.9,0.8-4.2-0.1-4.9-2.1c-0.6-1.8,0.2-3.8,1.9-4.6c1.3-0.6,2.7-0.4,3.7,0.4
		c0.1,0.1,0.2,0.1,0.3,0l3.1-1.4c0.2-0.1,0.3-0.3,0.1-0.5c-2.2-2.6-5.9-3.5-9.2-1.9c-3.4,1.7-5,5.8-3.6,9.4c1.6,4,6.1,5.8,10,4.2
		c3.1-1.4,4.9-4.6,4.5-7.8c0-0.2-0.3-0.4-0.5-0.3l-3.1,1.4c-0.1,0-0.2,0.2-0.2,0.3C172.8,87.8,172,89,170.7,89.5"/>
	<polygon class="st2" points="190.3,108.7 199.2,108.7 184,145.3 176.9,145.3 161.8,108.7 170.6,108.7 180.5,133 	"/>
	<path class="st2" d="M220,125.8h9.7c0.5,0,1.1-0.1,1.7-0.4c0.6-0.3,1.1-0.6,1.5-1c0.4-0.4,0.8-1,1-1.6c0.3-0.6,0.4-1.2,0.4-1.9
		c0-0.7-0.1-1.3-0.4-1.9c-0.3-0.6-0.6-1.1-1-1.6c-0.4-0.4-0.9-0.8-1.5-1c-0.6-0.3-1.1-0.4-1.7-0.4H220V125.8z M220,145.3h-8.2v-36.7
		h8.2H230c1.7,0,3.3,0.3,4.8,1c1.5,0.6,2.8,1.5,3.9,2.6c1.1,1.1,2,2.4,2.7,3.9c0.6,1.5,1,3.1,1,4.8c0,1.3-0.2,2.6-0.6,3.8
		c-0.4,1.2-1,2.3-1.7,3.3c-0.7,1-1.6,1.9-2.5,2.6c-1,0.7-2.1,1.3-3.2,1.8l10,13h-9.6l-9.2-12.2H220V145.3z"/>
	<path class="st2" d="M259.2,139.2c1.1,0,2-0.2,3-0.6c0.9-0.4,1.7-1,2.4-1.6c0.7-0.7,1.2-1.5,1.6-2.4c0.4-0.9,0.6-1.9,0.6-3
		c0-1.1-0.2-2-0.6-3c-0.4-0.9-1-1.7-1.6-2.4c-0.7-0.7-1.5-1.2-2.4-1.6c-0.9-0.4-1.9-0.6-3-0.6c-1.1,0-2,0.2-3,0.6
		c-0.9,0.4-1.7,1-2.4,1.6c-0.7,0.7-1.2,1.5-1.6,2.4c-0.4,0.9-0.6,1.9-0.6,3c0,1.1,0.2,2,0.6,3c0.4,0.9,1,1.7,1.6,2.4
		c0.7,0.7,1.5,1.2,2.4,1.6C257.1,139,258.1,139.2,259.2,139.2 M259,117c2.1,0,4,0.4,5.9,1.1c1.9,0.8,3.5,1.8,4.8,3.1
		c1.4,1.3,2.4,2.9,3.2,4.6c0.8,1.8,1.2,3.7,1.2,5.7v13.8H267v-3.4c-0.9,1.3-2,2.3-3.4,3.1c-1.4,0.8-2.9,1.1-4.6,1.1
		c-2.1,0-4.1-0.4-5.9-1.1c-1.8-0.8-3.4-1.8-4.8-3.1c-1.4-1.3-2.4-2.9-3.2-4.6c-0.8-1.8-1.2-3.7-1.2-5.7c0-2,0.4-3.9,1.2-5.7
		c0.8-1.8,1.9-3.3,3.2-4.6c1.4-1.3,3-2.4,4.8-3.1C254.9,117.4,256.9,117,259,117"/>
	<polygon class="st2" points="279.8,154.5 288.3,154.5 305,117.8 296.7,117.8 289.5,133.7 282.4,117.8 274.1,117.8 285.4,142.1 	"/>
	<rect x="196.1" y="125.9" class="st2" width="11.6" height="7.2"/>
</g>
<g id="Products">
</g>
<g id="Products_1_">
</g>
<g id="Products_2_">
</g>
<g id="Products_3_">
</g>
<g id="Products_4_">
</g>
<g id="Products_5_">
</g>
<g id="Products_6_">
</g>
<g id="Products_7_">
</g>
</svg>
